<svg width="35" height="35" viewBox="0 0 35 35" fill="none" xmlns="http://www.w3.org/2000/svg">
<path d="M29.1665 5.83325H26.3531C25.6031 5.83325 25.2281 5.83325 24.9569 6.04505C24.6856 6.25684 24.5947 6.62062 24.4128 7.34818L24.0406 8.837C23.7258 10.0961 23.5684 10.7257 23.1357 11.1292C23.0502 11.209 22.9578 11.2811 22.8597 11.3447C22.3633 11.6666 21.7144 11.6666 20.4165 11.6666V11.6666" stroke="#222222" stroke-width="2" stroke-linecap="round"/>
<path d="M8.75 24.7916H23.9883C24.776 24.7916 25.1699 24.7916 25.4242 24.619C25.6192 24.4867 25.7612 24.2896 25.8251 24.0628C25.9084 23.7669 25.7839 23.3933 25.5348 22.646V22.646C25.2592 21.8193 25.1214 21.4059 24.8599 21.1049C24.6571 20.8714 24.4028 20.6881 24.1171 20.5695C23.7489 20.4166 23.3132 20.4166 22.4417 20.4166H14.5833" stroke="#222222" stroke-width="2" stroke-linecap="round" stroke-linejoin="round"/>
<path d="M11.4442 20.4167H21.6389C22.6166 20.4167 23.451 19.7099 23.6117 18.7455L24.5004 13.4133C24.6528 12.499 23.9477 11.6667 23.0208 11.6667H7.45121C6.70782 11.6667 6.22433 12.4491 6.55678 13.114L9.65538 19.3112C9.99417 19.9887 10.6867 20.4167 11.4442 20.4167Z" stroke="#222222" stroke-width="2" stroke-linecap="round"/>
<circle cx="1.45833" cy="1.45833" r="1.45833" transform="matrix(-1 0 0 1 11.6665 27.7084)" fill="#222222"/>
<circle cx="1.45833" cy="1.45833" r="1.45833" transform="matrix(-1 0 0 1 23.3335 27.7084)" fill="#222222"/>
</svg>
