<svg width="34" height="34" viewBox="0 0 34 34" fill="none" xmlns="http://www.w3.org/2000/svg">
<path d="M2.8335 17L2.44306 16.6876L2.19318 17L2.44306 17.3123L2.8335 17ZM15.5835 17.5C15.8596 17.5 16.0835 17.2761 16.0835 17C16.0835 16.7238 15.8596 16.5 15.5835 16.5V17.5ZM8.10973 9.60428L2.44306 16.6876L3.22393 17.3123L8.8906 10.229L8.10973 9.60428ZM2.44306 17.3123L8.10973 24.3956L8.8906 23.7709L3.22393 16.6876L2.44306 17.3123ZM2.8335 17.5H15.5835V16.5H2.8335V17.5Z" fill="#FF0A0A"/>
<path d="M14.1665 11.5203V9.05522C14.1665 7.43687 14.1665 6.6277 14.6405 6.06821C15.1144 5.50872 15.9126 5.37569 17.5089 5.10964L24.1801 3.99777C27.4232 3.45726 29.0448 3.187 30.1056 4.0857C31.1665 4.98439 31.1665 6.62831 31.1665 9.91614V24.0839C31.1665 27.3718 31.1665 29.0157 30.1056 29.9144C29.0448 30.8131 27.4232 30.5428 24.1801 30.0023L17.5089 28.8904C15.9126 28.6244 15.1144 28.4914 14.6405 27.9319C14.1665 27.3724 14.1665 26.5632 14.1665 24.9449V22.7602" stroke="#FF0A0A"/>
</svg>
