<svg width="922" height="1147" viewBox="0 0 922 1147" fill="none" xmlns="http://www.w3.org/2000/svg">
<g filter="url(#filter0_d_35_30)">
<path d="M301.253 149.913C11.3104 96.8983 -89.6258 71.1024 206.284 36.0544C502.193 1.00646 899.266 35.465 899.266 35.465L900.166 1094.37C900.166 1094.37 441.905 1148.56 164.435 1094.99C-113.035 1041.43 348.828 974.28 348.828 974.28C24.6389 983.682 433.977 969.337 189.424 935.456C-55.1285 901.574 1.35916 819.527 222.7 820.385C444.042 821.243 308.913 779.269 348.648 762.206L252.954 678.854L206.663 481.888L339.341 401.283L188.849 259.905C276.458 289.541 591.196 202.928 301.253 149.913Z" fill="#FF7700"/>
</g>
<defs>
<filter id="filter0_d_35_30" x="0.848614" y="0.123272" width="920.518" height="1146.71" filterUnits="userSpaceOnUse" color-interpolation-filters="sRGB">
<feFlood flood-opacity="0" result="BackgroundImageFix"/>
<feColorMatrix in="SourceAlpha" type="matrix" values="0 0 0 0 0 0 0 0 0 0 0 0 0 0 0 0 0 0 127 0" result="hardAlpha"/>
<feOffset dx="-3" dy="4"/>
<feGaussianBlur stdDeviation="12.1"/>
<feComposite in2="hardAlpha" operator="out"/>
<feColorMatrix type="matrix" values="0 0 0 0 0 0 0 0 0 0 0 0 0 0 0 0 0 0 0.25 0"/>
<feBlend mode="normal" in2="BackgroundImageFix" result="effect1_dropShadow_35_30"/>
<feBlend mode="normal" in="SourceGraphic" in2="effect1_dropShadow_35_30" result="shape"/>
</filter>
</defs>
</svg>
