<svg width="66" height="66" viewBox="0 0 66 66" fill="none" xmlns="http://www.w3.org/2000/svg">
<path d="M17.7316 21.9159C18.4224 15.6988 18.7678 12.5902 20.7373 10.6093C20.9562 10.3892 21.1877 10.182 21.4307 9.98879C23.6169 8.25 26.7446 8.25 33 8.25V8.25C39.2554 8.25 42.3831 8.25 44.5693 9.98879C44.8123 10.182 45.0438 10.3892 45.2627 10.6093C47.2322 12.5902 47.5776 15.6988 48.2684 21.9159L49.1144 29.5293C49.3064 31.2579 49.4025 32.1222 49.6784 32.9398C49.9544 33.7573 50.4018 34.503 51.2966 35.9944L55.9326 43.721C56.7384 45.0639 57.1412 45.7354 56.854 46.2427C56.5668 46.75 55.7837 46.75 54.2176 46.75H11.7824C10.2163 46.75 9.43322 46.75 9.14599 46.2427C8.85876 45.7354 9.26164 45.0639 10.0674 43.721L14.7034 35.9944C15.5982 34.503 16.0456 33.7573 16.3216 32.9398C16.5975 32.1222 16.6936 31.2579 16.8856 29.5293L17.7316 21.9159Z" stroke="#000" stroke-width="2"/>
<path d="M22 46.75C22 48.1945 22.2845 49.6249 22.8373 50.9595C23.3901 52.2941 24.2004 53.5067 25.2218 54.5282C26.2433 55.5496 27.4559 56.3599 28.7905 56.9127C30.1251 57.4655 31.5555 57.75 33 57.75C34.4445 57.75 35.8749 57.4655 37.2095 56.9127C38.5441 56.3599 39.7567 55.5496 40.7782 54.5282C41.7996 53.5067 42.6099 52.2941 43.1627 50.9595C43.7155 49.6249 44 48.1945 44 46.75" stroke="#000" stroke-width="2" stroke-linecap="round"/>
</svg>
