<svg width="83" height="83" viewBox="0 0 83 83" fill="none" xmlns="http://www.w3.org/2000/svg">
<path d="M72.9906 44.2652C72.0995 52.354 68.2635 59.8019 62.2471 65.1243C56.2308 70.4466 48.476 73.2524 40.5289 72.9822C32.5819 72.712 25.0262 69.3857 19.368 63.6665C13.7099 57.9472 10.3649 50.2552 10 42.1236C10.0394 40.4488 10.1948 38.779 10.4649 37.1266C10.6106 39.5121 11.5493 41.7747 13.1249 43.5386C14.7005 45.3024 16.8181 46.4613 19.126 46.8226C21.4339 47.184 23.7931 46.726 25.8116 45.5249C27.8302 44.3238 29.3866 42.4518 30.2221 40.22C30.4805 39.7006 30.6383 39.1351 30.6869 38.5544C31.4067 35.9249 33.0053 33.6375 35.2038 32.091C37.4022 30.5445 40.0612 29.837 42.717 30.0919C45.3728 30.3468 47.857 31.5479 49.7364 33.4857C51.6157 35.4236 52.7711 37.9753 53.001 40.6959V42.8375C53.2908 45.3816 54.5021 47.7219 56.3957 49.3961C58.2893 51.0703 60.7274 51.9564 63.2283 51.8796C65.4509 51.9024 67.6175 51.166 69.3855 49.787C71.1536 48.408 72.4221 46.465 72.9906 44.2652Z" stroke="black" stroke-width="2" stroke-linecap="round" stroke-linejoin="round"/>
<path d="M53.0011 42.1236V42.8375C52.881 45.8466 51.6282 48.6914 49.5051 50.7761C47.3821 52.8608 44.5535 54.0237 41.6116 54.0212C38.5293 54.0212 35.5732 52.7677 33.3937 50.5365C31.2141 48.3053 29.9897 45.2791 29.9897 42.1236C29.9897 41.4098 30.2222 40.9338 30.2222 40.22C30.4806 39.7006 30.6384 39.1351 30.687 38.5544C31.4068 35.9249 33.0054 33.6375 35.2038 32.091C37.4023 30.5445 40.0613 29.837 42.7171 30.0919C45.3729 30.3468 47.8571 31.5479 49.7365 33.4857C51.6158 35.4236 52.7712 37.9753 53.0011 40.6959V42.1236Z" stroke="black" stroke-width="2" stroke-linecap="round" stroke-linejoin="round"/>
<path d="M72.9903 42.1236V44.2651C72.4218 46.4649 71.1533 48.4079 69.3852 49.7869C67.6172 51.166 65.4506 51.9023 63.228 51.8795C60.7271 51.9563 58.289 51.0702 56.3954 49.396C54.5018 47.7219 53.2905 45.3815 53.0007 42.8374V40.6958C52.7708 37.9752 51.6154 35.4235 49.7361 33.4857C47.8567 31.5478 45.3725 30.3467 42.7167 30.0918C40.0609 29.8369 37.4019 30.5444 35.2035 32.0909C33.005 33.6374 31.4064 35.9248 30.6866 38.5543C30.4542 39.0302 30.4542 39.744 30.2218 40.2199C29.3862 42.4517 27.8299 44.3237 25.8113 45.5248C23.7928 46.7259 21.4336 47.1839 19.1257 46.8226C16.8178 46.4612 14.7001 45.3023 13.1246 43.5385C11.549 41.7747 10.6103 39.512 10.4646 37.1266C10.7158 35.3528 11.1044 33.6022 11.6268 31.8916C13.7938 25.5124 17.8427 19.9797 23.214 16.0581C28.5853 12.1365 35.0139 10.0197 41.6112 10C49.217 9.98819 56.568 12.8047 62.2972 17.9257C68.0264 23.0467 71.7438 30.1237 72.7579 37.8404C72.9508 39.2591 73.0284 40.6917 72.9903 42.1236Z" stroke="black" stroke-width="2" stroke-linecap="round" stroke-linejoin="round"/>
<path d="M21.3896 36.6507L24.1789 33.3193" stroke="black" stroke-width="2" stroke-linecap="round" stroke-linejoin="round"/>
<path d="M32.5467 26.4188L29.2925 23.8013" stroke="black" stroke-width="2" stroke-linecap="round" stroke-linejoin="round"/>
<path d="M58.115 27.1326L54.8608 24.5151" stroke="black" stroke-width="2" stroke-linecap="round" stroke-linejoin="round"/>
<path d="M41.8438 22.1355L44.4005 18.8042" stroke="black" stroke-width="2" stroke-linecap="round" stroke-linejoin="round"/>
<path d="M61.834 39.0302L64.6233 35.6989" stroke="black" stroke-width="2" stroke-linecap="round" stroke-linejoin="round"/>
</svg>
