<svg width="63" height="63" viewBox="0 0 63 63" fill="none" xmlns="http://www.w3.org/2000/svg">
<path d="M25.5938 38.7844L45.2812 15.9469H5.90625L25.5938 38.7844ZM25.5938 38.7844L45.2812 15.9469H5.90625L25.5938 38.7844Z" stroke="black" stroke-width="2" stroke-linecap="round" stroke-linejoin="round"/>
<path d="M25.5938 38.7844V56.5032" stroke="black" stroke-width="2" stroke-linecap="round" stroke-linejoin="round"/>
<path d="M12.6001 56.5032H38.5876" stroke="black" stroke-width="2" stroke-linecap="round" stroke-linejoin="round"/>
<path d="M17.9158 29.1375H33.272" stroke="black" stroke-width="2" stroke-linecap="round" stroke-linejoin="round"/>
<path d="M35.2407 15.9469C35.2407 13.961 35.8296 12.0198 36.9329 10.3686C38.0361 8.71746 39.6043 7.43051 41.439 6.67056C43.2737 5.9106 45.2925 5.71176 47.2402 6.09918C49.1879 6.4866 50.9769 7.44292 52.3811 8.84713C53.7853 10.2513 54.7416 12.0404 55.129 13.9881C55.5164 15.9358 55.3176 17.9546 54.5576 19.7893C53.7977 21.624 52.5108 23.1921 50.8596 24.2954C49.2085 25.3987 47.2671 25.9875 45.2813 25.9875C42.8721 25.9756 40.5545 25.0626 38.7844 23.4281" stroke="black" stroke-width="2" stroke-linecap="round" stroke-linejoin="round"/>
</svg>
