<svg width="24" height="25" viewBox="0 0 24 25" fill="none" xmlns="http://www.w3.org/2000/svg">
<path d="M0.75 23.85H22.725" stroke="white" stroke-width="1.5" stroke-linecap="round" stroke-linejoin="round"/>
<path d="M2.02502 21.15C2.42851 18.8515 3.62508 16.7673 5.40652 15.2599C7.18795 13.7525 9.4415 12.9175 11.775 12.9C14.1038 12.9054 16.355 13.7379 18.127 15.2489C19.899 16.7599 21.0767 18.8513 21.45 21.15" stroke="white" stroke-width="1.5" stroke-linecap="round" stroke-linejoin="round"/>
<path d="M11.7751 12.825C12.852 12.825 13.7251 11.9519 13.7251 10.875C13.7251 9.79804 12.852 8.92499 11.7751 8.92499C10.6981 8.92499 9.82507 9.79804 9.82507 10.875C9.82507 11.9519 10.6981 12.825 11.7751 12.825Z" stroke="white" stroke-width="1.5" stroke-linecap="round" stroke-linejoin="round"/>
<path d="M11.775 3V5.77499" stroke="white" stroke-width="1.5" stroke-linecap="round" stroke-linejoin="round"/>
<path d="M6 4.875V7.575" stroke="white" stroke-width="1.5" stroke-linecap="round" stroke-linejoin="round"/>
<path d="M17.55 4.875V7.575" stroke="white" stroke-width="1.5" stroke-linecap="round" stroke-linejoin="round"/>
</svg>
