<svg width="100" height="100" viewBox="0 0 100 100" fill="none" xmlns="http://www.w3.org/2000/svg">
<g clip-path="url(#clip0_50_1196)">
<path d="M29.1667 41.6667V37.5C29.1667 26.0018 38.5018 16.6667 50 16.6667C61.4982 16.6667 70.8333 26.0018 70.8333 37.5V41.6667C80.0319 41.6667 87.5 49.1347 87.5 58.3333C87.5 64.5 84.15 70.0333 79.1667 72.9167M29.1667 41.6667C19.9681 41.6667 12.5 49.1347 12.5 58.3333C12.5 64.5 15.85 70.0333 20.8333 72.9167M29.1667 41.6667C30.9211 41.6653 32.6648 41.9409 34.3333 42.4833M50 50V87.5M50 50L62.5 62.5M50 50L37.5 62.5" stroke="black" stroke-width="6.25" stroke-linecap="round" stroke-linejoin="round"/>
</g>
<defs>
<clipPath id="clip0_50_1196">
<rect width="100" height="100" fill="white"/>
</clipPath>
</defs>
</svg>
