<svg width="92" height="92" viewBox="0 0 92 92" fill="none" xmlns="http://www.w3.org/2000/svg">
<g filter="url(#filter0_d_50_1213)">
<g clip-path="url(#clip0_50_1213)">
<rect x="30.8101" y="28.41" width="31.19" height="31.19" rx="15.595" fill="#464242" fill-opacity="0.1" shape-rendering="crispEdges"/>
<g clip-path="url(#clip1_50_1213)">
<path d="M37.5237 41.6047C37.4683 40.883 37.7164 40.1708 38.2083 39.6397C38.7002 39.1087 39.3912 38.8068 40.1151 38.8067H52.695C53.4189 38.8068 54.11 39.1087 54.6018 39.6397C55.0937 40.1708 55.3418 40.883 55.2864 41.6047L54.3871 53.301C54.2832 54.6553 53.154 55.7012 51.7957 55.7013H41.0144C39.6561 55.7012 38.5269 54.6553 38.423 53.301L37.5237 41.6047Z" fill="#FF7700"/>
<path d="M37.5237 41.6047C37.4683 40.883 37.7164 40.1708 38.2083 39.6397C38.7002 39.1087 39.3912 38.8068 40.1151 38.8067H52.695C53.4189 38.8068 54.11 39.1087 54.6018 39.6397C55.0937 40.1708 55.3418 40.883 55.2864 41.6047L54.3871 53.301C54.2832 54.6553 53.154 55.7012 51.7957 55.7013H41.0144C39.6561 55.7012 38.5269 54.6553 38.423 53.301L37.5237 41.6047" stroke="black" stroke-width="2.59917"/>
<path d="M56.1519 34.908H36.6582H56.1519Z" fill="#FF7700"/>
<path d="M56.1519 34.908H36.6582H56.1519" stroke="black" stroke-width="2.59917" stroke-linecap="round"/>
<path d="M43.8059 32.3088C43.8059 31.5915 44.3882 31.0092 45.1055 31.0092H47.7046C48.4219 31.0092 49.0042 31.5915 49.0042 32.3088V34.908H43.8059V32.3088Z" fill="#FF7700"/>
<path d="M43.8059 32.3088C43.8059 31.5915 44.3882 31.0092 45.1055 31.0092H47.7046C48.4219 31.0092 49.0042 31.5915 49.0042 32.3088V34.908H43.8059V32.3088" stroke="black" stroke-width="2.59917"/>
</g>
</g>
</g>
<defs>
<filter id="filter0_d_50_1213" x="0.810059" y="0.410034" width="91.1899" height="91.1899" filterUnits="userSpaceOnUse" color-interpolation-filters="sRGB">
<feFlood flood-opacity="0" result="BackgroundImageFix"/>
<feColorMatrix in="SourceAlpha" type="matrix" values="0 0 0 0 0 0 0 0 0 0 0 0 0 0 0 0 0 0 127 0" result="hardAlpha"/>
<feOffset dy="2"/>
<feGaussianBlur stdDeviation="15"/>
<feComposite in2="hardAlpha" operator="out"/>
<feColorMatrix type="matrix" values="0 0 0 0 0 0 0 0 0 0 0 0 0 0 0 0 0 0 0.204 0"/>
<feBlend mode="normal" in2="BackgroundImageFix" result="effect1_dropShadow_50_1213"/>
<feBlend mode="normal" in="SourceGraphic" in2="effect1_dropShadow_50_1213" result="shape"/>
</filter>
<clipPath id="clip0_50_1213">
<rect x="30.8101" y="28.41" width="31.19" height="31.19" rx="15.595" fill="white"/>
</clipPath>
<clipPath id="clip1_50_1213">
<rect width="31.19" height="31.19" fill="white" transform="translate(30.8101 28.41)"/>
</clipPath>
</defs>
</svg>
